<svg id="svg" version="1.1" xmlns="http://www.w3.org/2000/svg" xmlns:xlink="http://www.w3.org/1999/xlink" width="400" height="181.8181818181818" viewBox="0, 0, 400,181.8181818181818"><g id="svgg"><path id="path0" d="M174.389 58.722 C 174.011 59.136,173.553 59.900,173.373 60.419 C 173.192 60.939,172.851 61.705,172.613 62.123 C 172.376 62.541,172.182 63.041,172.182 63.234 C 172.182 63.428,171.981 63.882,171.736 64.243 C 171.490 64.605,171.170 65.302,171.025 65.791 C 170.879 66.281,170.548 67.080,170.289 67.567 C 170.030 68.053,169.818 68.525,169.818 68.614 C 169.818 68.703,169.517 69.358,169.150 70.070 C 168.306 71.703,168.251 72.831,168.962 73.920 C 169.220 74.314,169.572 75.005,169.744 75.455 C 169.916 75.905,170.160 76.395,170.287 76.545 C 170.414 76.695,170.739 77.330,171.010 77.955 C 171.281 78.580,171.560 79.091,171.631 79.091 C 171.702 79.091,171.871 79.439,172.008 79.864 C 172.144 80.289,172.438 80.923,172.661 81.273 C 172.885 81.623,173.208 82.277,173.380 82.727 C 173.552 83.177,173.796 83.668,173.921 83.818 C 174.047 83.968,174.365 84.579,174.628 85.176 C 174.891 85.772,175.175 86.304,175.259 86.357 C 175.343 86.411,175.547 86.856,175.713 87.346 C 175.879 87.836,176.159 88.449,176.335 88.709 C 176.512 88.969,176.812 89.550,177.002 90.000 C 177.192 90.450,177.535 91.103,177.765 91.451 C 177.994 91.800,178.182 92.218,178.182 92.380 C 178.182 92.543,178.370 92.954,178.599 93.293 C 178.829 93.632,179.162 94.273,179.339 94.717 C 179.516 95.161,179.803 95.734,179.977 95.990 C 180.150 96.245,180.448 96.823,180.638 97.273 C 180.828 97.723,181.172 98.376,181.401 98.724 C 181.630 99.072,181.818 99.490,181.818 99.653 C 181.818 99.816,182.006 100.227,182.236 100.566 C 182.465 100.904,182.798 101.545,182.975 101.990 C 183.153 102.434,183.456 103.019,183.649 103.290 C 183.842 103.562,184.000 103.827,184.000 103.881 C 184.000 104.082,186.010 108.166,186.152 108.254 C 186.233 108.304,186.412 108.697,186.550 109.127 C 186.687 109.557,186.988 110.162,187.218 110.472 C 187.448 110.781,187.636 111.097,187.636 111.173 C 187.636 111.465,189.329 114.730,189.595 114.950 C 189.981 115.271,200.811 115.394,202.257 115.094 C 203.464 114.844,203.585 114.699,203.133 114.044 C 202.943 113.770,202.649 113.190,202.479 112.755 C 202.309 112.320,201.968 111.666,201.721 111.303 C 201.475 110.940,201.273 110.510,201.273 110.347 C 201.273 110.184,201.080 109.767,200.846 109.421 C 200.611 109.075,200.270 108.403,200.088 107.928 C 199.907 107.453,199.623 106.886,199.456 106.668 C 199.290 106.451,199.014 105.917,198.844 105.482 C 198.673 105.047,198.332 104.394,198.085 104.031 C 197.838 103.667,197.636 103.237,197.636 103.074 C 197.636 102.911,197.436 102.483,197.191 102.121 C 196.946 101.760,196.615 101.082,196.456 100.614 C 196.297 100.146,196.023 99.551,195.847 99.291 C 195.670 99.031,195.372 98.450,195.183 98.000 C 194.995 97.550,194.729 97.048,194.593 96.884 C 194.456 96.720,194.178 96.148,193.975 95.611 C 193.772 95.075,193.503 94.514,193.377 94.364 C 193.251 94.214,193.006 93.727,192.834 93.283 C 192.661 92.839,192.376 92.266,192.200 92.010 C 192.024 91.755,191.694 91.078,191.467 90.507 C 191.240 89.936,190.940 89.374,190.800 89.258 C 190.660 89.141,190.546 88.954,190.547 88.841 C 190.548 88.729,189.410 86.345,188.019 83.545 C 186.628 80.745,185.114 77.677,184.655 76.727 C 184.196 75.777,183.667 74.714,183.479 74.364 C 183.292 74.014,183.006 73.441,182.843 73.091 C 182.681 72.741,182.472 72.332,182.380 72.182 C 182.288 72.032,181.298 70.027,180.179 67.727 C 179.061 65.427,178.027 63.341,177.883 63.091 C 177.738 62.841,177.454 62.268,177.253 61.818 C 177.051 61.368,176.781 60.795,176.651 60.545 C 176.522 60.295,176.197 59.665,175.929 59.143 C 175.278 57.875,175.186 57.850,174.389 58.722 M29.392 58.514 C 28.973 58.977,28.931 69.641,29.347 69.986 C 29.713 70.290,120.472 70.287,120.839 69.983 C 121.044 69.813,121.091 68.740,121.091 64.273 C 121.091 58.086,121.113 58.189,119.876 58.532 C 118.647 58.874,31.304 58.798,30.483 58.455 C 29.679 58.119,29.753 58.115,29.392 58.514 M349.545 59.193 C 349.445 59.219,349.148 59.288,348.884 59.346 C 348.176 59.501,348.111 59.932,348.683 60.681 C 349.448 61.684,349.442 65.415,348.673 66.878 C 347.951 68.252,347.928 70.554,348.623 71.909 C 348.880 72.409,349.090 72.921,349.090 73.047 C 349.091 73.173,349.343 73.540,349.651 73.862 C 349.959 74.184,350.266 74.540,350.333 74.652 C 350.445 74.840,351.516 75.595,352.435 76.134 C 352.685 76.280,353.636 76.359,355.169 76.361 L 357.520 76.364 358.715 75.595 C 359.372 75.172,359.979 74.714,360.064 74.577 C 360.150 74.440,360.414 74.160,360.651 73.954 C 360.888 73.747,361.178 73.287,361.296 72.930 C 361.414 72.573,361.661 72.034,361.845 71.732 C 362.495 70.666,362.327 67.777,361.521 66.151 C 360.790 64.678,359.150 62.931,357.512 61.881 C 356.994 61.549,356.519 61.195,356.457 61.095 C 356.396 60.996,355.879 60.779,355.309 60.615 C 354.739 60.451,354.040 60.153,353.756 59.952 C 353.400 59.701,352.751 59.539,351.665 59.430 C 350.799 59.343,350.009 59.244,349.909 59.208 C 349.809 59.173,349.645 59.166,349.545 59.193 M222.726 59.615 C 222.475 59.697,222.025 59.885,221.726 60.035 C 221.427 60.184,220.650 60.452,220.000 60.630 C 219.350 60.808,218.587 61.148,218.304 61.386 C 218.022 61.624,217.687 61.818,217.560 61.818 C 216.737 61.818,212.443 65.474,210.811 67.565 C 209.995 68.611,208.865 70.307,208.481 71.063 C 208.296 71.429,208.038 71.850,207.909 72.000 C 207.780 72.150,207.542 72.667,207.381 73.148 C 207.219 73.630,206.883 74.406,206.635 74.874 C 206.386 75.342,206.182 75.821,206.182 75.939 C 206.182 76.057,205.932 76.876,205.626 77.759 C 204.175 81.950,204.034 92.699,205.388 95.940 C 205.542 96.308,205.833 97.147,206.034 97.805 C 206.373 98.911,207.426 101.366,207.834 102.000 C 207.930 102.150,208.215 102.682,208.466 103.182 C 208.951 104.144,209.810 105.438,210.665 106.490 C 210.949 106.840,211.386 107.380,211.636 107.691 C 212.574 108.856,214.787 110.854,215.909 111.548 C 216.209 111.733,216.618 112.027,216.818 112.199 C 217.472 112.764,220.006 114.000,220.510 114.000 C 220.781 114.000,221.411 114.223,221.911 114.496 C 222.682 114.917,223.036 114.992,224.273 114.996 C 226.512 115.002,226.513 115.000,225.354 113.258 C 224.809 112.440,224.364 111.691,224.364 111.595 C 224.364 111.499,224.085 110.835,223.745 110.119 C 223.405 109.404,223.026 108.368,222.903 107.818 C 222.781 107.268,222.590 106.704,222.479 106.566 C 222.214 106.234,221.836 104.787,221.826 104.066 C 221.822 103.752,221.625 102.811,221.388 101.975 C 221.003 100.615,220.799 99.116,220.175 93.091 C 219.947 90.882,219.947 83.466,220.175 81.555 C 220.271 80.750,220.486 78.700,220.652 77.000 C 220.818 75.300,221.103 73.418,221.286 72.818 C 221.469 72.218,221.704 71.195,221.807 70.545 C 222.018 69.224,222.194 68.583,222.614 67.607 C 222.771 67.242,222.983 66.573,223.084 66.123 C 223.407 64.679,225.438 60.786,226.140 60.263 C 226.858 59.728,224.033 59.192,222.726 59.615 M240.127 59.717 C 239.809 60.035,239.830 60.135,240.517 61.531 C 241.188 62.893,241.168 64.581,240.463 66.273 C 239.019 69.738,239.988 73.175,243.053 75.458 L 244.273 76.367 246.636 76.319 L 249.000 76.271 250.091 75.518 C 254.383 72.558,254.741 67.658,250.952 63.727 C 249.862 62.596,248.921 61.818,248.644 61.818 C 248.505 61.818,248.160 61.624,247.878 61.387 C 247.595 61.149,246.873 60.806,246.273 60.623 C 245.673 60.441,244.936 60.124,244.636 59.919 C 243.887 59.406,240.586 59.258,240.127 59.717 M263.195 59.740 C 262.938 59.997,262.909 62.754,262.909 87.370 L 262.909 114.714 263.318 114.948 C 264.034 115.357,275.233 115.278,275.872 114.859 L 276.364 114.537 276.364 87.279 L 276.364 60.021 275.960 59.738 C 275.349 59.310,263.623 59.312,263.195 59.740 M290.591 59.642 C 289.986 59.885,290.082 60.089,291.098 60.714 C 291.601 61.024,292.060 61.399,292.117 61.548 C 292.174 61.697,292.314 61.818,292.429 61.818 C 292.773 61.819,297.385 66.454,298.688 68.109 C 299.148 68.693,299.674 69.436,300.631 70.852 C 300.982 71.370,301.353 71.846,301.455 71.909 C 301.558 71.973,301.762 72.313,301.909 72.665 C 302.056 73.017,302.383 73.550,302.634 73.848 C 302.885 74.147,303.091 74.490,303.091 74.610 C 303.091 74.730,303.222 75.016,303.383 75.246 L 303.676 75.663 304.111 75.254 L 304.545 74.846 304.545 67.338 C 304.545 60.102,304.533 59.824,304.194 59.643 C 303.753 59.407,291.178 59.406,290.591 59.642 M318.545 71.759 C 318.110 71.940,318.083 72.075,318.199 73.484 C 318.771 80.414,323.248 87.464,330.185 92.356 C 330.533 92.601,330.900 92.868,331.000 92.949 C 331.701 93.514,333.416 94.545,333.656 94.545 C 333.817 94.545,334.267 94.763,334.656 95.029 C 335.045 95.295,335.720 95.621,336.156 95.753 C 336.591 95.886,337.205 96.152,337.519 96.345 C 337.834 96.537,338.582 96.836,339.182 97.009 C 339.782 97.182,340.558 97.517,340.906 97.753 C 341.254 97.989,341.745 98.182,341.997 98.182 C 342.249 98.182,342.741 98.340,343.091 98.533 C 344.211 99.150,344.619 99.315,345.425 99.475 C 345.859 99.561,346.447 99.827,346.731 100.066 C 347.014 100.305,347.559 100.558,347.942 100.629 C 348.324 100.699,349.045 100.986,349.545 101.266 C 350.045 101.546,350.782 101.831,351.182 101.900 C 351.582 101.969,352.199 102.223,352.553 102.466 C 352.907 102.708,353.591 102.979,354.072 103.069 C 354.554 103.159,355.170 103.397,355.442 103.598 C 355.713 103.799,356.461 104.108,357.104 104.286 C 357.747 104.463,358.558 104.799,358.906 105.031 C 359.592 105.490,360.696 105.595,361.055 105.236 C 361.539 104.752,361.213 99.367,360.644 98.455 C 360.519 98.255,360.288 97.580,360.130 96.956 C 359.973 96.332,359.681 95.514,359.482 95.138 C 359.283 94.762,358.901 93.988,358.633 93.417 C 358.366 92.846,358.032 92.284,357.892 92.167 C 357.751 92.051,357.636 91.861,357.636 91.746 C 357.636 91.630,357.411 91.282,357.136 90.972 C 356.861 90.661,356.268 89.936,355.818 89.360 C 354.847 88.117,352.241 85.808,350.487 84.636 C 350.188 84.436,349.731 84.130,349.471 83.956 C 349.212 83.781,348.885 83.638,348.744 83.637 C 348.604 83.637,348.236 83.444,347.926 83.210 C 347.617 82.975,346.914 82.637,346.364 82.458 C 345.814 82.279,345.036 81.948,344.636 81.723 C 344.236 81.498,343.582 81.258,343.182 81.189 C 342.782 81.121,342.165 80.867,341.811 80.625 C 341.457 80.383,340.791 80.115,340.332 80.029 C 339.873 79.943,339.262 79.709,338.976 79.508 C 338.689 79.307,338.005 78.999,337.455 78.824 C 336.905 78.650,336.149 78.311,335.777 78.072 C 335.404 77.832,334.896 77.636,334.649 77.636 C 334.126 77.636,333.360 77.330,332.762 76.881 C 332.531 76.708,331.901 76.475,331.364 76.364 C 330.826 76.252,330.190 76.006,329.950 75.818 C 329.710 75.629,329.112 75.376,328.620 75.256 C 328.129 75.136,327.390 74.843,326.977 74.605 C 326.564 74.368,325.764 74.053,325.198 73.906 C 324.632 73.758,323.947 73.474,323.675 73.275 C 323.404 73.075,322.803 72.842,322.339 72.756 C 321.876 72.670,321.234 72.413,320.914 72.185 C 320.333 71.771,319.064 71.543,318.545 71.759 M295.104 77.052 C 295.097 77.180,294.802 77.456,294.448 77.664 C 294.094 77.873,293.675 78.300,293.515 78.613 C 293.176 79.280,291.065 81.357,289.636 82.429 C 289.086 82.842,288.595 83.221,288.545 83.272 C 288.145 83.676,286.269 84.783,285.731 84.931 C 284.700 85.216,284.162 86.672,284.955 87.035 C 286.791 87.876,288.092 88.613,288.791 89.208 C 289.126 89.494,289.760 90.014,290.199 90.364 C 291.587 91.469,292.493 92.352,293.267 93.356 C 293.679 93.891,294.212 94.378,294.451 94.437 C 294.690 94.497,294.943 94.730,295.015 94.955 C 295.141 95.351,295.149 95.352,295.287 95.000 C 295.481 94.503,295.468 77.636,295.273 77.182 C 295.187 76.982,295.111 76.923,295.104 77.052 M30.909 92.727 C 30.909 92.848,45.822 92.909,75.283 92.909 C 104.820 92.909,119.620 92.848,119.545 92.727 C 119.471 92.607,104.483 92.545,75.171 92.545 C 45.784 92.545,30.909 92.607,30.909 92.727 M251.380 98.131 C 251.309 98.353,251.005 98.762,250.705 99.040 C 250.404 99.318,249.918 100.036,249.624 100.636 C 249.037 101.838,248.583 102.613,247.794 103.757 C 247.507 104.173,247.273 104.573,247.273 104.644 C 247.273 104.716,247.007 105.075,246.682 105.444 C 246.357 105.812,245.845 106.433,245.545 106.823 C 243.857 109.018,239.486 113.325,238.080 114.178 C 237.531 114.512,237.525 114.651,238.045 114.948 C 238.619 115.276,250.586 115.285,251.318 114.959 L 251.818 114.736 251.805 106.595 C 251.793 98.902,251.703 97.114,251.380 98.131 M303.388 98.944 C 303.239 99.175,303.016 99.589,302.893 99.864 C 302.770 100.139,302.602 100.364,302.521 100.364 C 302.440 100.364,302.241 100.620,302.079 100.933 C 301.757 101.555,299.510 104.411,297.636 106.580 C 296.714 107.648,291.707 112.667,290.540 113.694 C 288.851 115.180,289.613 115.331,298.372 115.240 C 303.330 115.188,303.979 115.147,304.419 114.858 L 304.913 114.535 304.866 106.585 L 304.818 98.636 304.238 98.580 C 303.795 98.537,303.595 98.623,303.388 98.944 M318.092 99.855 C 318.036 100.085,318.013 103.543,318.040 107.540 L 318.091 114.807 318.818 115.026 C 320.348 115.487,338.325 115.292,339.111 114.806 C 339.425 114.611,338.909 114.197,338.209 114.082 C 337.316 113.935,336.579 113.643,335.838 113.143 C 335.499 112.914,335.040 112.727,334.817 112.727 C 334.595 112.727,334.205 112.564,333.950 112.363 C 333.696 112.163,332.969 111.767,332.335 111.482 C 331.701 111.198,331.070 110.830,330.932 110.664 C 330.795 110.499,330.582 110.364,330.459 110.364 C 330.336 110.364,330.003 110.148,329.719 109.885 C 329.435 109.622,328.911 109.286,328.556 109.139 C 328.200 108.991,327.705 108.680,327.455 108.446 C 327.205 108.213,326.305 107.424,325.455 106.693 C 323.470 104.986,321.937 103.408,320.636 101.733 C 320.005 100.920,319.522 100.440,318.747 99.855 L 318.193 99.436 318.092 99.855 M154.832 102.100 C 154.375 102.754,154.000 103.340,154.000 103.401 C 154.000 103.461,153.775 103.805,153.501 104.165 C 153.226 104.524,152.724 105.227,152.385 105.727 C 151.779 106.620,150.645 108.104,149.745 109.182 C 149.495 109.482,148.835 110.288,148.278 110.974 C 147.722 111.659,146.674 112.777,145.951 113.457 L 144.636 114.695 145.182 114.938 C 145.961 115.286,165.666 115.384,166.986 115.047 C 168.124 114.756,168.187 114.536,167.276 114.024 C 166.874 113.798,166.320 113.408,166.045 113.157 C 164.330 111.591,162.503 109.792,161.892 109.069 C 161.501 108.607,161.018 108.039,160.818 107.806 C 160.618 107.572,160.291 107.126,160.091 106.814 C 159.508 105.903,158.676 104.747,158.136 104.099 C 157.861 103.768,157.636 103.441,157.636 103.372 C 157.636 103.156,155.976 100.909,155.816 100.909 C 155.733 100.909,155.290 101.445,154.832 102.100 " stroke="none" fill="#3db9eb" fill-rule="evenodd"></path><path id="path1" d="M29.279 81.624 C 29.040 82.072,29.020 92.844,29.259 92.991 C 29.641 93.228,120.971 93.103,121.122 92.866 C 121.388 92.446,121.293 81.952,121.020 81.591 C 120.622 81.067,29.560 81.100,29.279 81.624 M119.545 92.727 C 119.620 92.848,104.820 92.909,75.283 92.909 C 45.822 92.909,30.909 92.848,30.909 92.727 C 30.909 92.607,45.784 92.545,75.171 92.545 C 104.483 92.545,119.471 92.607,119.545 92.727 M29.392 104.514 C 28.970 104.980,28.938 114.373,29.354 115.369 L 29.618 116.000 75.182 116.000 L 120.746 116.000 121.009 115.369 C 121.451 114.312,121.391 104.891,120.940 104.483 C 120.396 103.991,29.837 104.022,29.392 104.514 " stroke="none" fill="#87f365" fill-rule="evenodd"></path></g></svg>